{"scene":0,"scenes":[{"nodes":[0]}],"asset":{"version":"2.0","generator":"https://github.com/mikedh/trimesh"},"accessors":[{"componentType":5125,"type":"SCALAR","bufferView":0,"count":513480,"max":[85573],"min":[0]},{"componentType":5126,"type":"VEC3","byteOffset":0,"bufferView":1,"count":85574,"max":[0.5834900140762329,0.7662820219993591,0.41438400745391846],"min":[-0.5884079933166504,-0.7513970136642456,-0.4329729974269867]}],"meshes":[{"name":"model1.obj","extras":{"processed":true,"file_path":"C:\\Users\\dori2\\Desktop\\Bezalel\\Year 5\\pgmr\\spaghetti_code\\spaghetti_code\\ui\\model1.obj","file_name":"model1.obj"},"primitives":[{"attributes":{"POSITION":1},"indices":0,"mode":4}]}],"nodes":[{"name":"world","children":[1]},{"name":"model1.obj","mesh":0}],"buffers":[{"uri":"gltf_buffer.bin","byteLength":3080808}],"bufferViews":[{"buffer":0,"byteOffset":0,"byteLength":2053920},{"buffer":0,"byteOffset":2053920,"byteLength":1026888}]}